<svg width="40" height="40" viewBox="0 0 40 40" fill="none" xmlns="http://www.w3.org/2000/svg">
<circle cx="20" cy="20" r="20" fill="white"/>
<g clip-path="url(#clip0)">
<path fill-rule="evenodd" clip-rule="evenodd" d="M27.9339 22.1143C28.6637 22.7944 29.4339 23.4343 30.0884 24.183C30.3776 24.5157 30.6513 24.859 30.8607 25.2451C31.1574 25.794 30.8887 26.398 30.3731 26.4308L27.1681 26.4294C26.3414 26.4949 25.682 26.1772 25.1275 25.6377C24.6838 25.2063 24.2728 24.7471 23.8462 24.3011C23.6712 24.1188 23.4881 23.9473 23.2694 23.8117C22.8319 23.5406 22.4521 23.6236 22.2021 24.0592C21.9474 24.5022 21.8897 24.9928 21.8647 25.4865C21.8303 26.2069 21.6022 26.3963 20.8441 26.4293C19.224 26.5023 17.6864 26.2683 16.258 25.4881C14.9987 24.8004 14.0221 23.8294 13.1721 22.7302C11.5172 20.5899 10.2499 18.238 9.11086 15.8202C8.85448 15.2754 9.04198 14.983 9.67163 14.9727C10.7172 14.9533 11.7626 14.9547 12.8094 14.9713C13.2344 14.9772 13.5157 15.2099 13.6798 15.5931C14.2455 16.9208 14.9377 18.184 15.8065 19.3549C16.0379 19.6666 16.2738 19.9784 16.6098 20.1978C16.9815 20.4407 17.2644 20.3602 17.4393 19.965C17.5502 19.7144 17.5988 19.4445 17.6238 19.1761C17.7067 18.2527 17.7176 17.3309 17.5723 16.4107C17.4831 15.8364 17.1442 15.4647 16.5439 15.356C16.2376 15.3006 16.2832 15.1918 16.4315 15.0249C16.6891 14.737 16.9314 14.5579 17.4144 14.5579H21.0366C21.6068 14.6653 21.7335 14.9098 21.8115 15.4575L21.8146 19.2981C21.8084 19.5101 21.9256 20.1393 22.3257 20.2797C22.6459 20.3796 22.857 20.135 23.0491 19.9412C23.9163 19.0626 24.5353 18.0243 25.0883 16.9491C25.3337 16.4763 25.5447 15.9853 25.7491 15.4948C25.9006 15.1307 26.1384 14.9516 26.568 14.9596L30.0541 14.9625C30.1575 14.9625 30.262 14.964 30.3622 14.9803C30.9496 15.0759 31.1106 15.3171 30.9291 15.8647C30.6433 16.7238 30.087 17.4397 29.5432 18.1589C28.9618 18.9268 28.34 19.6684 27.7635 20.4408C27.2338 21.1461 27.2759 21.5017 27.9339 22.1143Z" fill="#3D76E6"/>
</g>
<defs>
<clipPath id="clip0">
<rect width="22" height="21" fill="white" transform="translate(9 10)"/>
</clipPath>
</defs>
</svg>
