<svg width="40" height="40" viewBox="0 0 40 40" fill="none" xmlns="http://www.w3.org/2000/svg">
<path fill-rule="evenodd" clip-rule="evenodd" d="M0 20C0 8.95431 8.95431 0 20 0C31.0457 0 40 8.95431 40 20C40 31.0457 31.0457 40 20 40C8.95431 40 0 31.0457 0 20Z" fill="white"/>
<path fill-rule="evenodd" clip-rule="evenodd" d="M19.6 10C16.9928 10 16.6659 10.011 15.642 10.0578C14.6201 10.1044 13.9223 10.2667 13.3116 10.504C12.6804 10.7493 12.145 11.0776 11.6112 11.6112C11.0776 12.145 10.7493 12.6804 10.504 13.3116C10.2667 13.9223 10.1044 14.6201 10.0578 15.6419C10.011 16.6659 10 16.9928 10 19.6C10 22.2072 10.011 22.5341 10.0578 23.5581C10.1044 24.5799 10.2667 25.2777 10.504 25.8884C10.7493 26.5196 11.0776 27.055 11.6112 27.5888C12.145 28.1224 12.6804 28.4507 13.3116 28.696C13.9223 28.9333 14.6201 29.0956 15.642 29.1422C16.6659 29.189 16.9928 29.2 19.6 29.2C22.2072 29.2 22.5341 29.189 23.558 29.1422C24.5799 29.0956 25.2777 28.9333 25.8884 28.696C26.5196 28.4507 27.055 28.1224 27.5888 27.5888C28.1224 27.055 28.4507 26.5196 28.696 25.8884C28.9333 25.2777 29.0956 24.5799 29.1422 23.5581C29.189 22.5341 29.2 22.2072 29.2 19.6C29.2 16.9928 29.189 16.6659 29.1422 15.6419C29.0956 14.6201 28.9333 13.9223 28.696 13.3116C28.4507 12.6804 28.1224 12.145 27.5888 11.6112C27.055 11.0776 26.5196 10.7493 25.8884 10.504C25.2777 10.2667 24.5799 10.1044 23.558 10.0578C22.5341 10.011 22.2072 10 19.6 10ZM19.6 11.7297C22.1633 11.7297 22.467 11.7395 23.4792 11.7857C24.4152 11.8284 24.9235 11.9848 25.2618 12.1162C25.7099 12.2904 26.0297 12.4984 26.3656 12.8344C26.7016 13.1703 26.9096 13.4901 27.0838 13.9382C27.2152 14.2765 27.3716 14.7848 27.4143 15.7208C27.4605 16.733 27.4703 17.0367 27.4703 19.6C27.4703 22.1633 27.4605 22.467 27.4143 23.4792C27.3716 24.4152 27.2152 24.9235 27.0838 25.2618C26.9096 25.7099 26.7016 26.0297 26.3656 26.3656C26.0297 26.7016 25.7099 26.9096 25.2618 27.0838C24.9235 27.2152 24.4152 27.3716 23.4792 27.4143C22.4671 27.4605 22.1635 27.4703 19.6 27.4703C17.0365 27.4703 16.7329 27.4605 15.7208 27.4143C14.7848 27.3716 14.2765 27.2152 13.9382 27.0838C13.4901 26.9096 13.1703 26.7016 12.8344 26.3656C12.4985 26.0297 12.2904 25.7099 12.1162 25.2618C11.9848 24.9235 11.8284 24.4152 11.7857 23.4792C11.7395 22.467 11.7297 22.1633 11.7297 19.6C11.7297 17.0367 11.7395 16.733 11.7857 15.7208C11.8284 14.7848 11.9848 14.2765 12.1162 13.9382C12.2904 13.4901 12.4984 13.1703 12.8344 12.8344C13.1703 12.4984 13.4901 12.2904 13.9382 12.1162C14.2765 11.9848 14.7848 11.8284 15.7208 11.7857C16.733 11.7395 17.0367 11.7297 19.6 11.7297ZM14.6703 19.6C14.6703 16.8774 16.8774 14.6703 19.6 14.6703C22.3226 14.6703 24.5297 16.8774 24.5297 19.6C24.5297 22.3226 22.3226 24.5297 19.6 24.5297C16.8774 24.5297 14.6703 22.3226 14.6703 19.6ZM19.6 22.8C17.8327 22.8 16.4 21.3673 16.4 19.6C16.4 17.8327 17.8327 16.4 19.6 16.4C21.3673 16.4 22.8 17.8327 22.8 19.6C22.8 21.3673 21.3673 22.8 19.6 22.8ZM24.7245 15.6275C25.3608 15.6275 25.8765 15.1118 25.8765 14.4755C25.8765 13.8393 25.3608 13.3235 24.7245 13.3235C24.0883 13.3235 23.5725 13.8393 23.5725 14.4755C23.5725 15.1118 24.0883 15.6275 24.7245 15.6275Z" fill="url(#paint0_radial)"/>
<defs>
<radialGradient id="paint0_radial" cx="0" cy="0" r="1" gradientUnits="userSpaceOnUse" gradientTransform="translate(13.8759 29.6163) rotate(144.998) scale(30.5152 22.1605)">
<stop stop-color="#FBE18A"/>
<stop offset="0.0306122" stop-color="#FBBB45"/>
<stop offset="0.158163" stop-color="#F88330"/>
<stop offset="0.260204" stop-color="#F86737"/>
<stop offset="0.377551" stop-color="#F8443E"/>
<stop offset="0.535714" stop-color="#F4306D"/>
<stop offset="0.688776" stop-color="#D53592"/>
<stop offset="0.887755" stop-color="#903ACD"/>
<stop offset="0.943262" stop-color="#544CED"/>
<stop offset="1" stop-color="#395DFA"/>
</radialGradient>
</defs>
</svg>
