<svg width="1920" height="1080" viewBox="0 0 1920 1080" fill="none" xmlns="http://www.w3.org/2000/svg">
<path d="M-563.046 1149.6C-468.626 1151.39 -427.912 1218.88 -328.294 1214.7C-211.351 1209.92 -261.593 1130.49 -150.713 1128.1C-36.369 1125.71 58.9181 1196.18 181.059 1190.21C316.193 1183.64 221.772 1110.78 360.372 1106.59C549.213 1100.62 731.125 1165.72 914.769 1166.32C1049.04 1166.92 1185.04 1092.26 1322.77 1085.09C1507.28 1076.13 1684.86 1146.01 1873.7 1141.83C2051.28 1137.65 2202.01 1065.38 2383.92 1063.59" stroke="url(#paint0_linear)" stroke-opacity="0.06" stroke-miterlimit="10"/>
<path d="M-565.647 1122.12C-475.557 1124.51 -440.041 1191.4 -345.621 1187.82C-235.607 1183.64 -278.053 1103.61 -169.773 1101.82C-61.4921 1100.02 29.4638 1168.11 142.076 1164.53C241.694 1161.54 227.834 1081.51 336.115 1081.51C517.16 1080.91 693.008 1144.22 876.652 1141.83C1030.84 1140.04 1146.92 1063.59 1304.58 1061.2C1492.55 1058.81 1668.4 1122.72 1857.24 1118.54C2040.02 1114.95 2195.94 1042.09 2383.05 1040.89" stroke="url(#paint1_linear)" stroke-opacity="0.06" stroke-miterlimit="10"/>
<path d="M-567.376 1094.05C-486.816 1089.28 -466.026 1165.72 -359.478 1160.35C-252.929 1154.97 -290.178 1076.73 -182.764 1074.94C-78.8141 1073.15 3.47923 1142.43 112.626 1138.25C212.244 1134.67 214.843 1056.43 322.257 1055.23C499.838 1054.04 667.889 1118.54 848.068 1115.56C1007.46 1113.17 1132.2 1037.91 1294.18 1035.52C1483.03 1033.13 1658.01 1097.04 1847.72 1093.46C2033.96 1089.87 2195.95 1017.6 2386.52 1016.41" stroke="url(#paint2_linear)" stroke-opacity="0.06" stroke-miterlimit="10"/>
<path d="M-569.099 1066.58C-492.003 1061.8 -473.812 1138.25 -372.461 1132.88C-270.244 1127.5 -300.563 1049.86 -194.015 1048.07C-93.5303 1046.27 -19.0332 1116.75 86.6488 1111.97C187.133 1107.19 205.324 1031.34 313.605 1029.55C487.721 1027.16 647.11 1093.46 822.958 1090.47C986.678 1088.08 1118.35 1012.83 1284.67 1011.04C1473.51 1008.65 1647.62 1073.15 1837.33 1069.57C2027.91 1065.98 2194.22 994.312 2388.26 992.52" stroke="url(#paint3_linear)" stroke-opacity="0.06" stroke-miterlimit="10"/>
<path d="M-571.708 1038.51C-497.21 1034.33 -481.618 1110.78 -383.732 1105.4C-284.98 1100.62 -309.235 1022.38 -202.687 1020.59C-102.202 1018.8 -39.8327 1088.08 65.8493 1085.09C168.932 1082.11 200.117 1005.06 310.131 1003.27C479.915 1000.28 631.508 1067.77 803.024 1064.79C970.21 1061.8 1108.81 987.741 1277.73 985.949C1465.7 983.56 1638.95 1048.06 1828.66 1044.48C2020.1 1040.9 2195.08 976.99 2389.12 968.031" stroke="url(#paint4_linear)" stroke-opacity="0.06" stroke-miterlimit="10"/>
<path d="M-573.43 1011.03C-500.665 1006.85 -487.671 1083.3 -392.384 1078.52C-297.097 1073.74 -314.422 996.698 -207.008 994.309C-108.256 992.517 -51.9498 1062.99 51.1334 1059.41C156.815 1055.23 200.994 980.572 314.472 978.183C479.059 974.6 623.722 1043.28 790.041 1040.3C959.825 1037.31 1103.62 963.849 1276 962.057C1463.11 959.668 1634.63 1024.77 1823.47 1021.19C2017.51 1017.6 2195.09 953.696 2391.73 945.334" stroke="url(#paint5_linear)" stroke-opacity="0.06" stroke-miterlimit="10"/>
<path d="M-575.174 982.963C-504.142 979.38 -492.881 1055.83 -399.326 1051.05C-305.772 1046.27 -317.899 969.823 -207.886 967.434C-109.134 965.643 -58.8919 1037.31 42.4589 1032.54C149.007 1027.76 213.109 952.503 324.855 951.906C480.779 950.711 620.245 1017.6 782.233 1014.62C954.615 1011.63 1102.74 938.766 1277.73 936.377C1463.97 933.988 1633.75 999.089 1820.86 996.103C2016.63 992.519 2196.81 929.21 2396.05 920.848" stroke="url(#paint6_linear)" stroke-opacity="0.06" stroke-miterlimit="10"/>
<path d="M-576.904 955.487C-506.738 951.904 -497.21 1028.35 -405.388 1024.17C-313.566 1019.39 -320.496 942.945 -207.884 940.556C-109.132 938.764 -64.9532 1011.63 36.3976 1006.25C147.277 1000.88 222.64 926.819 338.717 926.222C489.444 925.027 621.113 992.517 777.038 989.531C951.153 985.947 1102.75 914.276 1279.46 911.887C1463.97 909.498 1631.16 975.197 1817.4 972.211C2014.9 969.224 2196.81 905.915 2397.78 897.553" stroke="url(#paint7_linear)" stroke-opacity="0.06" stroke-miterlimit="10"/>
<path d="M-579.506 927.417C-509.34 923.833 -497.213 1003.27 -410.588 996.698C-323.963 990.129 -301.441 916.666 -205.288 914.277C-106.536 911.291 -66.6884 985.948 34.6623 980.573C151.605 974.6 238.23 903.526 356.906 900.54C490.308 896.956 637.569 962.057 776.169 963.849C949.418 966.238 1106.21 889.192 1283.79 886.803C1466.57 884.414 1629.42 951.307 1814.8 947.723C2015.77 943.543 2195.08 872.469 2398.65 873.663" stroke="url(#paint8_linear)" stroke-opacity="0.06" stroke-miterlimit="10"/>
<path d="M-581.236 899.346C-511.07 896.36 -499.809 975.198 -413.185 969.225C-325.694 962.656 -297.974 889.79 -199.222 887.401C-98.7375 884.415 -64.0877 959.669 38.1293 954.294C161.136 947.724 258.156 878.442 381.163 874.859C507.634 871.275 648.833 936.973 780.502 938.765C954.617 941.154 1113.14 864.705 1291.59 862.316C1471.77 859.927 1632.02 927.417 1814.8 923.834C2016.63 919.653 2196.81 849.176 2400.38 850.371" stroke="url(#paint9_linear)" stroke-opacity="0.06" stroke-miterlimit="10"/>
<path d="M-582.971 871.874C-511.073 868.887 -502.41 948.323 -414.92 941.753C-325.696 935.183 -292.779 863.512 -192.295 859.928C-90.0775 856.942 -60.6252 932.197 45.0568 927.419C176.726 920.849 278.077 853.956 408.88 848.581C541.415 843.205 647.964 916.668 788.295 913.084C963.277 908.306 1121.8 839.622 1300.25 837.233C1478.69 834.844 1634.62 902.334 1815.66 898.75C2017.5 894.569 2197.68 824.093 2402.11 825.287" stroke="url(#paint10_linear)" stroke-opacity="0.06" stroke-miterlimit="10"/>
<path d="M-585.568 843.802C-512.803 841.413 -505.007 920.848 -415.784 914.278C-323.962 907.709 -285.847 836.635 -182.764 833.051C-78.8142 830.065 -51.0943 905.917 55.4539 901.139C193.187 894.569 304.933 828.87 440.933 822.898C566.539 817.523 664.425 891.583 799.559 887.999C973.674 883.221 1133.93 815.134 1311.51 812.744C1482.16 810.355 1647.61 874.262 1818.26 874.859C2015.77 876.054 2200.28 800.799 2404.71 801.994" stroke="url(#paint11_linear)" stroke-opacity="0.06" stroke-miterlimit="10"/>
<path d="M-587.305 816.329C-507.61 813.94 -505.878 893.375 -414.922 887.403C-317.036 880.833 -273.724 807.967 -161.978 806.773C-61.4936 805.578 -33.7737 878.444 69.3095 874.86C207.909 870.082 330.049 800.203 476.445 797.217C592.522 794.828 698.204 859.929 815.147 862.915C988.396 867.096 1154.72 791.244 1334.89 787.661C1496.88 784.674 1659.74 849.178 1822.59 850.373C2019.23 851.567 2203.74 776.91 2407.31 778.105" stroke="url(#paint12_linear)" stroke-opacity="0.06" stroke-miterlimit="10"/>
<path d="M-589.034 788.256C-498.944 785.867 -506.74 865.302 -413.186 859.927C-311.835 853.954 -240.803 784.672 -132.522 779.894C-35.5028 775.713 -22.5091 853.357 85.7716 848.579C228.702 842.606 362.97 775.116 514.563 771.532C623.71 768.546 720.73 834.842 832.475 837.828C1008.32 842.009 1183.3 766.754 1366.08 763.171C1519.41 760.184 1670.13 824.688 1826.06 826.48C2023.56 828.869 2205.47 754.809 2408.18 754.809" stroke="url(#paint13_linear)" stroke-opacity="0.06" stroke-miterlimit="10"/>
<path d="M-591.635 760.185C-490.285 758.393 -506.743 838.425 -411.456 832.453C-304.908 825.286 -212.22 757.796 -101.34 753.018C5.20796 748.24 -6.9195 830.661 105.692 822.3C252.088 811.549 399.35 749.434 556.14 745.253C662.688 742.864 745.848 809.16 853.262 811.549C1031.71 815.73 1213.62 741.072 1399 737.489C1545.39 734.503 1682.26 799.604 1831.25 801.395C2027.02 803.785 2209.8 730.322 2409.91 730.322" stroke="url(#paint14_linear)" stroke-opacity="0.06" stroke-miterlimit="10"/>
<path d="M-593.365 732.711C-479.887 730.92 -500.676 810.952 -397.593 805.577C-283.249 799.604 -183.631 731.517 -68.42 726.739C38.9945 721.961 27.7333 804.382 138.613 796.618C289.339 786.465 440.932 724.35 601.188 720.169C718.997 717.183 770.972 795.424 887.915 787.062C1060.3 775.117 1253.47 720.169 1435.38 713.599C1568.78 708.821 1711.71 775.714 1849.45 778.103C2040.02 781.089 2218.47 707.029 2414.24 707.627" stroke="url(#paint15_linear)" stroke-opacity="0.06" stroke-miterlimit="10"/>
<path d="M-595.087 704.641C-492.004 702.252 -472.08 781.687 -381.124 778.103C-262.449 773.325 -154.168 705.238 -35.4923 699.265C74.5209 693.89 63.2597 777.506 175.005 769.742C327.465 759.588 483.389 698.071 645.377 693.89C762.32 690.904 809.097 769.742 924.308 761.38C1094.96 748.838 1289 695.085 1468.31 688.515C1596.51 683.737 1734.25 750.63 1865.92 753.019C2050.43 756.602 2222.81 682.542 2412.52 683.139" stroke="url(#paint16_linear)" stroke-opacity="0.06" stroke-miterlimit="10"/>
<path d="M-596.831 677.167C-487.684 674.181 -461.697 754.214 -362.945 751.227C-235.607 747.046 -125.593 680.154 0.0122779 672.986C113.49 666.417 103.096 751.227 215.707 744.06C370.765 733.907 530.155 672.986 694.741 668.806C809.952 665.819 852.398 745.255 966.743 736.893C1135.66 724.351 1328.83 671.195 1507.28 664.625C1630.29 659.847 1761.96 727.337 1889.29 729.726C2067.74 733.31 2233.19 659.847 2416.84 660.444" stroke="url(#paint17_linear)" stroke-opacity="0.06" stroke-miterlimit="10"/>
<path d="M-599.418 649.095C-485.074 645.512 -450.424 726.739 -344.742 723.155C-211.34 718.975 -94.3967 653.276 35.5402 645.512C151.617 638.942 142.955 724.35 257.299 717.183C414.956 707.029 577.81 646.706 744.129 642.525C858.474 639.539 896.589 719.572 1009.2 711.21C1175.52 698.668 1368.69 646.109 1544.54 639.539C1662.35 634.761 1787.96 702.849 1910.96 705.238C2083.35 708.821 2241.87 635.358 2419.45 635.956" stroke="url(#paint18_linear)" stroke-opacity="0.06" stroke-miterlimit="10"/>
<path d="M-601.162 621.023C-488.55 621.023 -432.244 696.874 -325.696 695.68C-186.23 694.485 -62.3573 626.398 71.0445 618.634C189.72 612.064 184.523 698.069 300.6 690.305C459.989 680.151 636.703 626.398 795.226 616.245C847.201 612.661 892.245 621.023 918.233 650.886C949.418 681.943 998.794 689.11 1053.37 684.929C1218.82 672.984 1400.73 615.647 1582.64 613.258C1703.92 612.064 1811.33 675.97 1932.61 679.554C2097.19 684.332 2250.52 610.272 2421.17 610.869" stroke="url(#paint19_linear)" stroke-opacity="0.06" stroke-miterlimit="10"/>
<path d="M-602.893 593.55C-488.548 593.55 -410.586 672.388 -306.637 668.804C-168.037 664.026 -30.3041 600.12 107.429 592.355C227.837 585.785 227.837 672.388 344.78 664.624C505.902 654.47 686.947 601.314 846.337 591.161C898.311 587.577 942.49 595.939 967.611 626.399C996.197 657.456 1044.71 664.623 1098.41 661.04C1262.13 649.095 1441.45 592.355 1619.89 589.966C1736.84 588.772 1837.32 652.678 1953.4 656.859C2111.06 662.234 2257.45 587.577 2421.17 588.772" stroke="url(#paint20_linear)" stroke-opacity="0.06" stroke-miterlimit="10"/>
<path d="M-605.494 565.477C-484.219 565.477 -398.461 645.51 -287.581 641.329C-142.052 635.954 0.878437 573.242 143.809 565.477C266.816 558.908 271.147 645.51 389.823 638.343C553.543 628.19 737.187 575.631 897.443 564.88C949.418 561.297 992.73 569.658 1016.12 600.118C1042.97 631.176 1090.62 638.94 1143.46 634.759C1304.58 623.412 1481.29 566.075 1657.14 564.283C1768.89 563.088 1863.31 627.592 1975.05 631.773C2126.65 637.148 2265.25 563.088 2422.04 564.283" stroke="url(#paint21_linear)" stroke-opacity="0.06" stroke-miterlimit="10"/>
<path d="M-607.215 537.408C-493.737 546.964 -375.062 617.44 -266.781 613.857C-115.188 608.482 33.8064 545.769 181.068 538.005C235.642 535.019 285.018 543.978 316.203 575.035C342.19 604.898 386.368 614.454 437.477 611.468C602.93 601.912 789.173 549.353 951.161 538.602C1073.3 530.838 1067.24 618.038 1192.84 609.079C1351.37 597.731 1524.62 540.991 1697.86 539.2C1817.41 538.005 1883.24 611.468 2000.18 606.69C2139.65 601.314 2275.65 538.602 2426.38 539.797" stroke="url(#paint22_linear)" stroke-opacity="0.06" stroke-miterlimit="10"/>
<path d="M-608.959 509.936C-466.895 503.366 -381.136 588.774 -246.868 586.982C-86.6129 584.593 56.3177 514.117 217.439 511.728C329.185 509.936 383.759 592.955 484.243 585.788C646.231 574.44 839.404 524.27 1003.12 513.519C1125.26 505.755 1115.74 593.552 1240.48 584.593C1396.4 573.842 1566.18 517.103 1735.97 515.311C1851.18 514.117 1910.08 588.177 2022.7 583.399C2156.1 578.62 2284.3 515.908 2428.1 517.103" stroke="url(#paint23_linear)" stroke-opacity="0.06" stroke-miterlimit="10"/>
<path d="M-610.69 481.864C-462.562 475.294 -367.275 561.299 -226.077 559.507C-60.6244 557.118 87.5036 486.642 254.689 484.85C369.033 483.655 429.671 566.077 531.888 559.507C695.608 548.757 890.513 497.99 1055.1 487.836C1177.24 480.072 1165.98 567.869 1289.85 559.507C1443.18 548.757 1608.63 492.614 1775.82 490.822C1887.56 489.628 1938.67 563.688 2046.95 559.507C2173.42 554.729 2294.7 492.614 2430.7 493.809" stroke="url(#paint24_linear)" stroke-opacity="0.06" stroke-miterlimit="10"/>
<path d="M-613.292 453.792C-470.361 462.751 -343.889 533.227 -206.156 532.033C-35.5056 530.241 118.686 459.765 290.203 457.973C407.146 456.778 473.847 539.797 578.663 533.227C744.116 522.477 939.887 472.307 1105.34 462.154C1227.48 454.987 1214.49 542.186 1337.49 534.422C1488.22 524.269 1656.27 471.71 1813.06 466.334C1924.81 462.154 1955.99 538.603 2069.47 535.616C2191.61 532.033 2302.49 469.321 2432.43 470.515" stroke="url(#paint25_linear)" stroke-opacity="0.06" stroke-miterlimit="10"/>
<path d="M-615.021 426.317C-453.9 424.525 -339.555 505.752 -186.23 504.557C-10.3822 503.363 155.937 423.33 324.855 431.095C420.142 435.275 534.486 512.322 625.442 506.946C792.627 496.793 987.533 446.026 1153.85 436.47C1275.99 429.303 1263 517.1 1384.27 509.335C1531.53 499.779 1695.26 446.623 1848.58 441.845C1956.86 438.262 1976.78 517.1 2091.13 511.724C2207.21 506.349 2312.89 443.637 2432.43 446.623" stroke="url(#paint26_linear)" stroke-opacity="0.06" stroke-miterlimit="10"/>
<path d="M-616.743 398.247C-449.558 396.455 -325.685 478.28 -165.429 477.085C14.75 476.488 186.267 395.858 360.382 404.22C459.134 408.998 578.676 485.447 673.097 480.072C841.148 471.113 1036.05 419.151 1203.24 410.192C1325.38 403.025 1313.25 490.822 1433.66 483.655C1578.32 475.294 1736.85 420.943 1886.71 416.165C1992.39 412.581 2003.65 491.42 2115.4 486.641C2228.01 481.266 2320.7 425.124 2435.91 422.138" stroke="url(#paint27_linear)" stroke-opacity="0.06" stroke-miterlimit="10"/>
<path d="M-619.354 370.175C-453.901 378.537 -306.639 450.208 -146.384 449.61C38.9927 449.013 214.841 368.981 393.287 377.342C495.504 382.12 619.377 459.167 718.129 453.791C887.047 445.43 1081.09 392.871 1248.27 383.912C1370.41 377.342 1360.88 464.542 1479.56 457.375C1621.62 449.61 1774.95 394.663 1921.34 390.482C2025.29 387.496 2028.76 466.334 2137.04 461.556C2244.45 456.778 2328.48 400.635 2436.76 397.649" stroke="url(#paint28_linear)" stroke-opacity="0.06" stroke-miterlimit="10"/>
<path d="M-621.075 342.701C-448.692 351.062 -294.501 422.733 -126.449 422.733C63.2589 422.733 243.438 342.103 426.216 351.062C532.764 355.84 660.968 432.887 764.052 428.109C933.836 420.344 1125.28 367.188 1292.46 358.827C1414.6 352.854 1409.4 438.262 1526.35 432.887C1664.95 426.914 1812.21 370.772 1956.87 366.591C2059.09 363.605 2054.76 442.443 2161.31 438.262C2263.52 434.081 2338.89 378.536 2440.24 374.953" stroke="url(#paint29_linear)" stroke-opacity="0.06" stroke-miterlimit="10"/>
<path d="M-622.819 314.631C-440.908 322.395 -284.117 394.664 -107.403 395.261C86.6358 395.858 271.146 328.368 457.389 323.59C595.988 320.006 672.218 404.22 807.352 401.234C983.2 397.65 1165.98 340.313 1334.03 332.549C1456.17 327.174 1456.17 411.984 1571.38 407.206C1707.38 401.831 1845.98 340.313 1989.78 341.508C2126.64 342.702 2047.82 411.984 2182.95 413.179C2286.9 413.776 2344.07 355.245 2441.96 350.467" stroke="url(#paint30_linear)" stroke-opacity="0.06" stroke-miterlimit="10"/>
<path d="M-625.406 286.559C-437.43 294.323 -272.844 367.188 -89.1997 367.786C108.304 368.383 294.547 288.948 486.854 296.712C613.325 301.49 725.937 376.745 849.811 374.953C1024.79 371.967 1204.97 314.032 1372.16 306.865C1494.3 301.49 1499.49 385.704 1614.71 382.12C1748.11 377.939 1881.51 315.824 2021.84 317.019C2154.38 318.213 2078.15 388.093 2204.62 389.287C2303.37 390.482 2352.75 333.145 2443.7 327.172" stroke="url(#paint31_linear)" stroke-opacity="0.06" stroke-miterlimit="10"/>
<path d="M-627.152 258.486C-432.247 266.251 -260.73 339.116 -71.0222 340.311C129.081 340.908 316.19 262.07 511.095 269.834C642.764 275.21 762.306 350.464 890.51 348.672C1064.63 346.283 1241.34 287.155 1407.66 281.182C1462.23 279.39 1510.74 288.947 1541.06 319.407C1565.32 348.075 1607.76 358.229 1656.27 357.034C1786.21 354.048 1913.55 291.336 2047.81 292.53C2175.15 293.725 2107.59 364.201 2225.39 365.396C2318.95 366.59 2360.53 310.448 2445.42 303.878" stroke="url(#paint32_linear)" stroke-opacity="0.06" stroke-miterlimit="10"/>
<path d="M-628.873 231.015C-428.77 239.377 -249.457 312.243 -52.8191 313.437C145.551 314.632 328.329 235.793 520.636 243.558C659.235 249.53 796.102 324.188 930.37 322.993C1102.75 321.201 1271.67 259.087 1439.72 256.1C1559.26 253.711 1586.98 334.341 1696.13 332.549C1819.14 330.16 1932.62 265.656 2059.09 268.643C2184.69 271.032 2135.32 339.716 2246.2 342.105C2357.08 344.495 2379.6 277.602 2448.03 281.185" stroke="url(#paint33_linear)" stroke-opacity="0.06" stroke-miterlimit="10"/>
<path d="M-630.618 202.943C-422.719 205.332 -239.075 285.365 -36.3732 285.962C158.532 286.559 333.513 214.888 527.552 216.68C686.942 217.874 812.547 296.712 966.739 296.712C1138.26 296.115 1294.18 228.028 1467.43 230.417C1579.17 231.611 1625.09 308.658 1734.23 307.463C1856.37 306.269 1951.66 242.959 2067.74 244.154C2187.28 245.348 2162.16 315.227 2266.11 318.214C2370.06 320.603 2382.18 254.307 2450.62 257.891" stroke="url(#paint34_linear)" stroke-opacity="0.06" stroke-miterlimit="10"/>
<path d="M-633.204 174.87C-420.973 177.857 -233.864 256.695 -26.8317 257.889C165.475 259.681 341.323 182.037 531.897 189.205C690.42 195.177 836.815 268.64 994.472 269.834C1165.99 271.029 1317.58 200.552 1490.83 204.136C1600.84 205.928 1658.02 284.766 1762.83 281.78C1873.71 278.196 1964.67 217.276 2074.68 219.067C2191.62 220.859 2179.5 290.738 2279.11 293.725C2377.87 296.711 2383.93 229.818 2452.36 233.402" stroke="url(#paint35_linear)" stroke-opacity="0.06" stroke-miterlimit="10"/>
<path d="M-634.948 146.801C-421.852 149.787 -233.876 229.222 -25.1112 230.417C168.062 231.612 343.043 154.565 534.484 162.329C698.204 168.899 849.797 241.765 1012.65 242.959C1185.03 244.751 1335.76 173.677 1509.88 177.261C1619.02 179.65 1677.93 257.891 1781.88 254.905C1889.29 251.918 1972.45 190.401 2079 192.192C2194.21 193.984 2186.41 263.863 2283.43 267.447C2380.45 270.433 2384.78 204.138 2454.08 207.721" stroke="url(#paint36_linear)" stroke-opacity="0.06" stroke-miterlimit="10"/>
<path d="M-636.679 119.327C-422.716 122.313 -233.875 201.748 -24.2431 203.54C168.93 205.332 343.045 127.688 534.485 135.453C702.537 142.022 859.328 214.888 1027.38 216.68C1199.76 218.472 1349.62 146.801 1523.74 151.579C1632.88 154.565 1693.52 232.209 1797.47 229.819C1901.42 227.43 1977.65 165.316 2079.87 167.705C2194.21 170.094 2190.75 239.973 2286.03 242.959C2381.32 246.543 2383.92 179.65 2454.95 183.831" stroke="url(#paint37_linear)" stroke-opacity="0.06" stroke-miterlimit="10"/>
<path d="M-639.279 91.2537C-424.45 94.8372 -234.743 174.273 -25.1112 176.064C167.195 177.856 338.712 105.588 531.885 108.574C711.198 111.56 861.924 188.01 1039.5 190.399C1211.02 192.788 1360.02 120.519 1533.26 125.895C1641.55 129.478 1709.11 205.33 1811.33 204.733C1915.28 204.733 1978.51 140.229 2080.73 143.215C2171.69 146.201 2203.74 214.289 2289.5 219.067C2380.45 224.442 2384.78 156.355 2457.55 160.536" stroke="url(#paint38_linear)" stroke-opacity="0.06" stroke-miterlimit="10"/>
<path d="M-641.011 63.1848C-426.182 66.7684 -236.474 146.801 -25.9763 148.593C165.464 150.385 335.248 78.1163 526.689 81.6998C710.333 85.2834 866.257 161.135 1048.17 164.122C1218.82 167.108 1365.21 93.645 1536.73 100.215C1645.88 104.396 1717.78 179.053 1820.86 179.65C1922.21 180.247 1977.65 115.146 2077.27 118.73C2169.09 122.313 2204.61 189.804 2291.23 195.179C2381.32 201.152 2383.92 132.467 2460.15 137.245" stroke="url(#paint39_linear)" stroke-opacity="0.06" stroke-miterlimit="10"/>
<path d="M-642.732 35.1123C-427.903 39.2931 -239.062 118.728 -28.5639 121.118C161.144 123.507 329.196 51.2383 518.903 54.8218C706.012 58.4054 868 134.257 1053.38 137.841C1222.29 140.827 1365.23 67.3643 1534.14 74.5314C1645.02 79.3094 1721.25 152.772 1826.93 154.564C1926.55 156.356 1974.2 89.4628 2071.22 94.2409C2164.77 98.4217 2203.75 165.315 2292.11 171.287C2382.2 177.26 2383.06 109.172 2462.76 113.95" stroke="url(#paint40_linear)" stroke-opacity="0.06" stroke-miterlimit="10"/>
<path d="M-645.342 7.63794C-431.379 11.8187 -243.404 91.2541 -33.7723 94.2404C154.203 96.6295 318.79 24.3612 505.899 28.542C696.473 32.7228 863.658 107.977 1052.5 112.158C1218.82 115.742 1358.28 41.6817 1523.74 49.446C1636.35 54.8214 1719.51 127.09 1826.92 130.076C1924.81 133.062 1963.79 64.9747 2059.94 70.3501C2156.1 75.7254 2199.41 141.424 2288.63 147.994C2379.59 154.564 2378.72 85.8788 2462.75 91.2541" stroke="url(#paint41_linear)" stroke-opacity="0.06" stroke-miterlimit="10"/>
<path d="M-647.063 -20.4307C-434.833 -16.2499 -247.724 63.7828 -38.9586 66.7691C145.552 69.1581 306.673 -3.11017 492.05 1.6679C686.089 6.44597 857.606 81.1033 1049.91 85.8813C1212.77 89.4649 1347.03 15.4048 1509.02 23.7665C1625.1 29.739 1714.32 100.813 1825.2 104.994C1922.22 108.577 1951.67 39.2952 2047.83 45.865C2146.58 52.4349 2195.96 116.939 2286.91 124.106C2378.73 131.273 2376.13 62.5883 2465.36 67.9636" stroke="url(#paint42_linear)" stroke-opacity="0.06" stroke-miterlimit="10"/>
<path d="M-648.809 -48.5039C-438.311 -43.7258 -252.934 35.7095 -45.9017 39.2931C136.01 42.2794 291.934 -29.9889 473.846 -25.2108C670.483 -19.8355 847.197 54.2245 1042.1 59.5999C1201.49 63.7807 1328.83 -10.8766 1486.49 -1.91775C1606.03 4.65209 1699.58 76.3231 1818.26 79.9067C1950.79 84.0875 1910.95 14.2082 2032.22 21.3753C2132.71 26.7506 2189.01 92.4491 2283.43 100.213C2377.85 107.381 2372.66 38.6958 2467.94 44.6684" stroke="url(#paint43_linear)" stroke-opacity="0.06" stroke-miterlimit="10"/>
<path d="M-650.529 -76.5747C-441.764 -71.7966 -259.853 13.6113 -53.6861 11.8195C118.697 10.0278 280.685 -57.4624 452.201 -52.0871C650.571 -46.1145 835.082 34.5153 1029.99 33.3208C1173.78 32.1263 1314.12 -34.1694 1457.91 -27.5995C1584.38 -22.2242 1681.4 49.4468 1807.88 54.8221C1941.28 60.7947 1888.44 -10.279 2013.18 -3.11193C2117.99 2.86066 2181.23 68.5591 2279.11 76.3234C2376.13 84.0878 2369.2 15.4031 2471.42 21.3757" stroke="url(#paint44_linear)" stroke-opacity="0.06" stroke-miterlimit="10"/>
<path d="M-653.139 -104.645C-446.973 -99.2697 -268.526 -13.8617 -64.9585 -15.6535C103.093 -16.848 259.017 -85.5327 425.336 -79.5602C626.305 -71.7958 812.548 8.23682 1010.92 5.84779C1149.52 4.05601 1282.92 -61.6424 1418.92 -55.0726C1550.59 -48.5027 1658 21.3765 1788.81 27.3491C1923.07 33.3217 1858.97 -38.3493 1987.18 -30.585C2092.86 -24.0151 2168.22 41.6833 2269.57 49.4476C2370.92 57.212 2360.53 -11.4727 2471.41 -5.50013" stroke="url(#paint45_linear)" stroke-opacity="0.06" stroke-miterlimit="10"/>
<path d="M-654.861 -132.118C-452.16 -126.743 -277.178 -41.3349 -77.0755 -43.1266C84.9124 -44.3212 234.773 -113.006 395.895 -106.436C597.73 -98.0744 788.304 -18.0418 987.54 -20.4308C1119.21 -21.6253 1244.82 -87.921 1373.89 -80.7539C1510.75 -72.9896 1629.43 -4.30483 1767.16 2.26501C1902.3 8.83486 1826.07 -63.4334 1960.33 -55.0718C2071.21 -47.9047 2154.37 17.1965 2260.92 24.9608C2367.47 32.7252 2354.48 -35.9595 2473.15 -29.3897" stroke="url(#paint46_linear)" stroke-opacity="0.06" stroke-miterlimit="10"/>
<path d="M-656.606 -160.19C-457.369 -156.607 -285.853 -70.0044 -90.0814 -70.6017C64.9766 -71.1989 208.773 -139.884 362.965 -133.314C566.533 -124.355 759.706 -44.9195 959.808 -46.7113C1083.68 -47.9058 1202.36 -114.202 1321.03 -106.437C1464.83 -96.881 1594.77 -29.9881 1740.3 -22.821C1878.03 -15.6539 1787.94 -87.9221 1929.14 -79.5605C2046.08 -72.3934 2137.9 -7.29225 2251.38 1.06937C2342.34 8.23647 2378.72 -60.4483 2476.6 -52.6839" stroke="url(#paint47_linear)" stroke-opacity="0.06" stroke-miterlimit="10"/>
<defs>
<linearGradient id="paint0_linear" x1="910.438" y1="1063.59" x2="910.438" y2="1214.89" gradientUnits="userSpaceOnUse">
<stop stop-color="#2C3E84"/>
<stop offset="1" stop-color="#23AFFF"/>
</linearGradient>
<linearGradient id="paint1_linear" x1="908.703" y1="1040.89" x2="908.703" y2="1187.96" gradientUnits="userSpaceOnUse">
<stop stop-color="#2C3E84"/>
<stop offset="1" stop-color="#23AFFF"/>
</linearGradient>
<linearGradient id="paint2_linear" x1="909.572" y1="1016.41" x2="909.572" y2="1160.62" gradientUnits="userSpaceOnUse">
<stop stop-color="#2C3E84"/>
<stop offset="1" stop-color="#23AFFF"/>
</linearGradient>
<linearGradient id="paint3_linear" x1="909.582" y1="992.52" x2="909.582" y2="1133.15" gradientUnits="userSpaceOnUse">
<stop stop-color="#2C3E84"/>
<stop offset="1" stop-color="#23AFFF"/>
</linearGradient>
<linearGradient id="paint4_linear" x1="908.706" y1="968.031" x2="908.706" y2="1105.67" gradientUnits="userSpaceOnUse">
<stop stop-color="#2C3E84"/>
<stop offset="1" stop-color="#23AFFF"/>
</linearGradient>
<linearGradient id="paint5_linear" x1="909.15" y1="945.334" x2="909.15" y2="1078.74" gradientUnits="userSpaceOnUse">
<stop stop-color="#2C3E84"/>
<stop offset="1" stop-color="#23AFFF"/>
</linearGradient>
<linearGradient id="paint6_linear" x1="910.437" y1="920.848" x2="910.437" y2="1051.27" gradientUnits="userSpaceOnUse">
<stop stop-color="#2C3E84"/>
<stop offset="1" stop-color="#23AFFF"/>
</linearGradient>
<linearGradient id="paint7_linear" x1="910.439" y1="897.553" x2="910.439" y2="1024.34" gradientUnits="userSpaceOnUse">
<stop stop-color="#2C3E84"/>
<stop offset="1" stop-color="#23AFFF"/>
</linearGradient>
<linearGradient id="paint8_linear" x1="909.57" y1="873.648" x2="909.57" y2="997.085" gradientUnits="userSpaceOnUse">
<stop stop-color="#2C3E84"/>
<stop offset="1" stop-color="#23AFFF"/>
</linearGradient>
<linearGradient id="paint9_linear" x1="909.573" y1="850.356" x2="909.573" y2="969.549" gradientUnits="userSpaceOnUse">
<stop stop-color="#2C3E84"/>
<stop offset="1" stop-color="#23AFFF"/>
</linearGradient>
<linearGradient id="paint10_linear" x1="909.57" y1="825.272" x2="909.57" y2="942.139" gradientUnits="userSpaceOnUse">
<stop stop-color="#2C3E84"/>
<stop offset="1" stop-color="#23AFFF"/>
</linearGradient>
<linearGradient id="paint11_linear" x1="909.572" y1="801.98" x2="909.572" y2="914.665" gradientUnits="userSpaceOnUse">
<stop stop-color="#2C3E84"/>
<stop offset="1" stop-color="#23AFFF"/>
</linearGradient>
<linearGradient id="paint12_linear" x1="910.001" y1="778.09" x2="910.001" y2="887.724" gradientUnits="userSpaceOnUse">
<stop stop-color="#2C3E84"/>
<stop offset="1" stop-color="#23AFFF"/>
</linearGradient>
<linearGradient id="paint13_linear" x1="909.571" y1="754.809" x2="909.571" y2="860.188" gradientUnits="userSpaceOnUse">
<stop stop-color="#2C3E84"/>
<stop offset="1" stop-color="#23AFFF"/>
</linearGradient>
<linearGradient id="paint14_linear" x1="909.135" y1="730.322" x2="909.135" y2="832.771" gradientUnits="userSpaceOnUse">
<stop stop-color="#2C3E84"/>
<stop offset="1" stop-color="#23AFFF"/>
</linearGradient>
<linearGradient id="paint15_linear" x1="910.438" y1="707.623" x2="910.438" y2="805.836" gradientUnits="userSpaceOnUse">
<stop stop-color="#2C3E84"/>
<stop offset="1" stop-color="#23AFFF"/>
</linearGradient>
<linearGradient id="paint16_linear" x1="908.715" y1="683.136" x2="908.715" y2="778.221" gradientUnits="userSpaceOnUse">
<stop stop-color="#2C3E84"/>
<stop offset="1" stop-color="#23AFFF"/>
</linearGradient>
<linearGradient id="paint17_linear" x1="910.003" y1="660.44" x2="910.003" y2="751.309" gradientUnits="userSpaceOnUse">
<stop stop-color="#2C3E84"/>
<stop offset="1" stop-color="#23AFFF"/>
</linearGradient>
<linearGradient id="paint18_linear" x1="910.015" y1="635.952" x2="910.015" y2="723.271" gradientUnits="userSpaceOnUse">
<stop stop-color="#2C3E84"/>
<stop offset="1" stop-color="#23AFFF"/>
</linearGradient>
<linearGradient id="paint19_linear" x1="910.003" y1="610.866" x2="910.003" y2="695.694" gradientUnits="userSpaceOnUse">
<stop stop-color="#2C3E84"/>
<stop offset="1" stop-color="#23AFFF"/>
</linearGradient>
<linearGradient id="paint20_linear" x1="909.139" y1="588.758" x2="909.139" y2="668.923" gradientUnits="userSpaceOnUse">
<stop stop-color="#2C3E84"/>
<stop offset="1" stop-color="#23AFFF"/>
</linearGradient>
<linearGradient id="paint21_linear" x1="908.271" y1="564.105" x2="908.271" y2="641.488" gradientUnits="userSpaceOnUse">
<stop stop-color="#2C3E84"/>
<stop offset="1" stop-color="#23AFFF"/>
</linearGradient>
<linearGradient id="paint22_linear" x1="909.581" y1="537.408" x2="909.581" y2="613.989" gradientUnits="userSpaceOnUse">
<stop stop-color="#2C3E84"/>
<stop offset="1" stop-color="#23AFFF"/>
</linearGradient>
<linearGradient id="paint23_linear" x1="909.569" y1="509.575" x2="909.569" y2="587.01" gradientUnits="userSpaceOnUse">
<stop stop-color="#2C3E84"/>
<stop offset="1" stop-color="#23AFFF"/>
</linearGradient>
<linearGradient id="paint24_linear" x1="910.004" y1="481.505" x2="910.004" y2="560.069" gradientUnits="userSpaceOnUse">
<stop stop-color="#2C3E84"/>
<stop offset="1" stop-color="#23AFFF"/>
</linearGradient>
<linearGradient id="paint25_linear" x1="909.568" y1="453.792" x2="909.568" y2="535.702" gradientUnits="userSpaceOnUse">
<stop stop-color="#2C3E84"/>
<stop offset="1" stop-color="#23AFFF"/>
</linearGradient>
<linearGradient id="paint26_linear" x1="908.704" y1="426.287" x2="908.704" y2="511.987" gradientUnits="userSpaceOnUse">
<stop stop-color="#2C3E84"/>
<stop offset="1" stop-color="#23AFFF"/>
</linearGradient>
<linearGradient id="paint27_linear" x1="909.582" y1="398.218" x2="909.582" y2="486.85" gradientUnits="userSpaceOnUse">
<stop stop-color="#2C3E84"/>
<stop offset="1" stop-color="#23AFFF"/>
</linearGradient>
<linearGradient id="paint28_linear" x1="908.703" y1="370.175" x2="908.703" y2="461.764" gradientUnits="userSpaceOnUse">
<stop stop-color="#2C3E84"/>
<stop offset="1" stop-color="#23AFFF"/>
</linearGradient>
<linearGradient id="paint29_linear" x1="909.581" y1="342.701" x2="909.581" y2="438.423" gradientUnits="userSpaceOnUse">
<stop stop-color="#2C3E84"/>
<stop offset="1" stop-color="#23AFFF"/>
</linearGradient>
<linearGradient id="paint30_linear" x1="909.569" y1="314.631" x2="909.569" y2="413.183" gradientUnits="userSpaceOnUse">
<stop stop-color="#2C3E84"/>
<stop offset="1" stop-color="#23AFFF"/>
</linearGradient>
<linearGradient id="paint31_linear" x1="909.149" y1="286.559" x2="909.149" y2="389.305" gradientUnits="userSpaceOnUse">
<stop stop-color="#2C3E84"/>
<stop offset="1" stop-color="#23AFFF"/>
</linearGradient>
<linearGradient id="paint32_linear" x1="909.135" y1="258.486" x2="909.135" y2="365.414" gradientUnits="userSpaceOnUse">
<stop stop-color="#2C3E84"/>
<stop offset="1" stop-color="#23AFFF"/>
</linearGradient>
<linearGradient id="paint33_linear" x1="909.58" y1="231.015" x2="909.58" y2="342.168" gradientUnits="userSpaceOnUse">
<stop stop-color="#2C3E84"/>
<stop offset="1" stop-color="#23AFFF"/>
</linearGradient>
<linearGradient id="paint34_linear" x1="910" y1="202.943" x2="910" y2="318.277" gradientUnits="userSpaceOnUse">
<stop stop-color="#2C3E84"/>
<stop offset="1" stop-color="#23AFFF"/>
</linearGradient>
<linearGradient id="paint35_linear" x1="909.58" y1="174.87" x2="909.58" y2="293.822" gradientUnits="userSpaceOnUse">
<stop stop-color="#2C3E84"/>
<stop offset="1" stop-color="#23AFFF"/>
</linearGradient>
<linearGradient id="paint36_linear" x1="909.568" y1="146.801" x2="909.568" y2="267.545" gradientUnits="userSpaceOnUse">
<stop stop-color="#2C3E84"/>
<stop offset="1" stop-color="#23AFFF"/>
</linearGradient>
<linearGradient id="paint37_linear" x1="909.137" y1="119.327" x2="909.137" y2="243.098" gradientUnits="userSpaceOnUse">
<stop stop-color="#2C3E84"/>
<stop offset="1" stop-color="#23AFFF"/>
</linearGradient>
<linearGradient id="paint38_linear" x1="909.135" y1="91.2537" x2="909.135" y2="219.369" gradientUnits="userSpaceOnUse">
<stop stop-color="#2C3E84"/>
<stop offset="1" stop-color="#23AFFF"/>
</linearGradient>
<linearGradient id="paint39_linear" x1="909.569" y1="63.1848" x2="909.569" y2="195.547" gradientUnits="userSpaceOnUse">
<stop stop-color="#2C3E84"/>
<stop offset="1" stop-color="#23AFFF"/>
</linearGradient>
<linearGradient id="paint40_linear" x1="910.013" y1="35.1123" x2="910.013" y2="171.659" gradientUnits="userSpaceOnUse">
<stop stop-color="#2C3E84"/>
<stop offset="1" stop-color="#23AFFF"/>
</linearGradient>
<linearGradient id="paint41_linear" x1="908.703" y1="7.63794" x2="908.703" y2="148.437" gradientUnits="userSpaceOnUse">
<stop stop-color="#2C3E84"/>
<stop offset="1" stop-color="#23AFFF"/>
</linearGradient>
<linearGradient id="paint42_linear" x1="909.147" y1="-20.4307" x2="909.147" y2="124.631" gradientUnits="userSpaceOnUse">
<stop stop-color="#2C3E84"/>
<stop offset="1" stop-color="#23AFFF"/>
</linearGradient>
<linearGradient id="paint43_linear" x1="909.567" y1="-48.5039" x2="909.567" y2="100.738" gradientUnits="userSpaceOnUse">
<stop stop-color="#2C3E84"/>
<stop offset="1" stop-color="#23AFFF"/>
</linearGradient>
<linearGradient id="paint44_linear" x1="910.445" y1="-76.5747" x2="910.445" y2="76.9363" gradientUnits="userSpaceOnUse">
<stop stop-color="#2C3E84"/>
<stop offset="1" stop-color="#23AFFF"/>
</linearGradient>
<linearGradient id="paint45_linear" x1="909.135" y1="-104.645" x2="909.135" y2="50.0605" gradientUnits="userSpaceOnUse">
<stop stop-color="#2C3E84"/>
<stop offset="1" stop-color="#23AFFF"/>
</linearGradient>
<linearGradient id="paint46_linear" x1="909.145" y1="-132.118" x2="909.145" y2="25.5738" gradientUnits="userSpaceOnUse">
<stop stop-color="#2C3E84"/>
<stop offset="1" stop-color="#23AFFF"/>
</linearGradient>
<linearGradient id="paint47_linear" x1="909.999" y1="-160.19" x2="909.999" y2="1.5946" gradientUnits="userSpaceOnUse">
<stop stop-color="#2C3E84"/>
<stop offset="1" stop-color="#23AFFF"/>
</linearGradient>
</defs>
</svg>
