<svg width="35" height="42" viewBox="0 0 35 42" fill="none" xmlns="http://www.w3.org/2000/svg">
<path d="M17.0225 8.95361C25.8983 8.95361 33.045 16.1003 33.045 24.9761C33.045 33.8519 25.8983 40.9986 17.0225 40.9986C8.262 41.1139 1 33.8519 1 25.0914C1 16.2156 8.262 8.95361 17.0225 8.95361Z" stroke="#222222" stroke-width="2" stroke-miterlimit="22.9256" stroke-linecap="round" stroke-linejoin="round"/>
<path d="M15.1782 8.95374V5.38037" stroke="#222222" stroke-width="2" stroke-miterlimit="22.9256" stroke-linecap="round" stroke-linejoin="round"/>
<path d="M18.9822 5.38037V8.95374" stroke="#222222" stroke-width="2" stroke-miterlimit="22.9256" stroke-linecap="round" stroke-linejoin="round"/>
<path d="M27.3967 12.4116L31.4312 8.3772L33.7366 10.6826L29.7021 14.717" stroke="#222222" stroke-width="2" stroke-miterlimit="22.9256" stroke-linecap="round" stroke-linejoin="round"/>
<path d="M12.8728 1H21.2875C21.6333 1 21.9791 1.34581 21.9791 1.69162V4.11229C21.9791 4.4581 21.6333 4.80391 21.2875 4.80391H12.8728C12.527 4.80391 12.1812 4.4581 12.1812 4.11229V1.69162C12.1812 1.34581 12.527 1 12.8728 1Z" stroke="#222222" stroke-width="2" stroke-miterlimit="22.9256" stroke-linecap="round" stroke-linejoin="round"/>
<path d="M17.0225 12.2964C24.054 12.2964 29.8175 18.0599 29.8175 25.0913C29.8175 32.1228 24.054 37.8863 17.0225 37.8863C9.99103 37.8863 4.22754 32.1228 4.22754 25.0913C4.34281 17.9446 9.99103 12.2964 17.0225 12.2964Z" stroke="#222222" stroke-width="2" stroke-miterlimit="22.9256" stroke-linecap="round" stroke-linejoin="round"/>
<path d="M17.896 25.424C18.328 25.424 18.7067 25.368 19.032 25.256C19.3627 25.144 19.6373 24.9866 19.856 24.784C20.08 24.576 20.248 24.3306 20.36 24.048C20.472 23.76 20.528 23.4426 20.528 23.096C20.528 22.3973 20.3093 21.848 19.872 21.448C19.44 21.048 18.7813 20.848 17.896 20.848H16.12V25.424H17.896ZM17.896 19.512C18.632 19.512 19.272 19.5973 19.816 19.768C20.36 19.9386 20.8107 20.1813 21.168 20.496C21.5253 20.8053 21.7893 21.1813 21.96 21.624C22.136 22.0666 22.224 22.5573 22.224 23.096C22.224 23.6346 22.1307 24.1306 21.944 24.584C21.7573 25.032 21.4827 25.4186 21.12 25.744C20.7573 26.0693 20.304 26.3226 19.76 26.504C19.2213 26.68 18.6 26.768 17.896 26.768H16.12V31H14.416V19.512H17.896Z" fill="#222222"/>
<line x1="14" y1="28.25" x2="21" y2="28.25" stroke="#222222" stroke-width="1.5"/>
</svg>
