<svg width="42" height="38" viewBox="0 0 42 38" fill="none" xmlns="http://www.w3.org/2000/svg">
<path d="M35.9799 21.8949L38.5411 19.3611C42.9454 14.9834 40.7672 9.07103 37.2126 5.2762C36.0397 4.02712 34.6993 2.94459 33.3229 2.17134C31.5157 1.16018 25.8667 -0.303026 22.1684 3.27767L14.4968 10.8673C12.4262 12.9134 17.6564 14.9001 20.3014 12.3068L22.2403 10.4153C25.1007 7.84574 28.6912 12.9967 33.1554 9.48739M6.10698 20.6934L3.55773 18.1596C-4.95174 9.71342 9.78125 -4.78782 18.4224 3.56318L20.1458 5.26431M26.3214 12.2473L36.2073 22.5492C38.2299 24.6548 35.2259 28.6519 32.6407 25.9991L28.009 21.2526M23.9637 24.4407L29.0502 29.6392C31.0848 31.721 35.2139 28.64 32.6287 25.9872L27.6499 20.8838M23.7113 31.4434L24.969 32.7322C27.0276 34.7902 31.025 31.8519 28.4518 29.1753" stroke="#222222" stroke-width="2" stroke-miterlimit="22.9256" stroke-linecap="round" stroke-linejoin="round"/>
<path d="M12.175 18.5998L12.4503 18.8734C13.3718 19.7894 13.3718 21.2883 12.4503 22.1924L8.93158 25.6899C8.01002 26.6059 6.50201 26.6059 5.59242 25.6899L5.31715 25.4163C4.39559 24.5003 4.39559 23.0014 5.31715 22.0973L8.82386 18.5998C9.74542 17.6838 11.2534 17.6838 12.175 18.5998ZM18.0873 20.2058L18.3626 20.4794C19.2842 21.3954 19.2842 22.8943 18.3626 23.7984L12.7614 29.3657C11.8399 30.2817 10.3319 30.2817 9.42228 29.3657L9.147 29.0921C8.22545 28.1761 8.22545 26.6772 9.147 25.7731L14.7482 20.2058C15.6697 19.2898 17.1777 19.2898 18.0873 20.2058ZM20.3852 25.4044L20.6605 25.678C21.5821 26.594 21.5821 28.0929 20.6605 28.997L16.8187 32.8156C15.8971 33.7316 14.3891 33.7316 13.4795 32.8156L13.2043 32.542C12.2827 31.626 12.2827 30.1271 13.2043 29.223L17.0461 25.4044C17.9557 24.5003 19.4637 24.5003 20.3852 25.4044ZM22.8507 30.3769L23.126 30.6505C24.0475 31.5665 24.0475 33.0654 23.126 33.9695L20.7682 36.313C19.8467 37.229 18.3387 37.229 17.4291 36.313L17.1538 36.0394C16.2322 35.1234 16.2322 33.6245 17.1538 32.7204L19.5116 30.3769C20.4331 29.4609 21.9411 29.4609 22.8507 30.3769Z" stroke="#222222" stroke-width="2" stroke-miterlimit="22.9256"/>
</svg>
