<svg width="40" height="36" viewBox="0 0 40 36" fill="none" xmlns="http://www.w3.org/2000/svg">
<path d="M32.4803 14.0113V21.2726C32.4803 24.4431 27.1539 26.9999 20.5743 26.9999C13.9947 26.9999 8.66829 24.4431 8.66829 21.2726V14.3181M5.22182 19.534C5.22182 16.7726 4.80406 13.909 5.63957 12.1704M5.63957 12.1704L2.08866 10.6363C1.46203 10.3295 1.35759 9.20445 1.98422 8.89763L19.4255 0.818087C20.0521 0.613541 20.8876 0.715814 21.6187 1.02263L38.6422 8.79536C39.3733 9.10218 39.3733 10.2272 38.8511 10.4317L21.4098 18.5113C20.7832 18.8181 19.9477 18.7158 19.2166 18.409L5.63957 12.1704ZM5.63957 12.1704L20.1565 9.20445M4.9085 24.4431C4.80406 29.4545 7.51947 32.1135 3.96856 35.284L0.730957 32.9317C3.02861 31.7045 4.80406 28.6363 4.9085 24.4431ZM5.11738 20.1476C6.16177 20.1476 6.89284 20.9658 6.89284 21.8863C6.89284 22.909 6.05733 23.6249 5.11738 23.6249C4.17743 23.6249 3.34192 22.8067 3.34192 21.8863C3.34192 20.9658 4.07299 20.1476 5.11738 20.1476Z" stroke="#222222" stroke-width="2" stroke-miterlimit="22.9256" stroke-linecap="round" stroke-linejoin="round"/>
</svg>
