<svg width="38" height="38" viewBox="0 0 38 38" fill="none" xmlns="http://www.w3.org/2000/svg">
<path d="M18.8921 24.1494L18.8812 35.0835C18.8812 37.6568 23.5889 37.6243 23.567 35.04L23.4792 28.2429L23.3694 15.6692M23.4901 22.879C24.1266 24.6923 25.0813 24.9203 25.7617 24.5077C26.8701 23.8237 26.486 22.3904 26.4421 21.2611L26.0909 12.6941C25.9812 9.83846 12.3957 10.0556 11.9567 12.6616C11.5946 14.2794 11.5507 17.9712 11.5068 20.7508C11.4848 22.1081 11.0239 24.8877 12.9334 24.6706C13.4821 24.6271 14.0856 24.1385 14.5356 22.8681M14.6672 15.6692L14.5575 28.2429L14.4697 35.04C14.4478 37.6134 18.8702 37.6568 18.8702 35.0835M7.67695 26.3753L7.66597 35.2898C7.66597 37.5917 11.8909 37.5591 11.8689 35.2572L11.7921 29.2527M8.17077 13.5411C4.98838 13.5302 1.66333 14.16 1.4658 15.3652C1.14756 16.8093 1.10366 18.8398 1.05977 21.3372C1.03782 22.5533 0.620818 25.0506 2.3437 24.8552C2.83752 24.8226 3.37523 24.3774 3.78126 23.2373M3.891 17.9712L3.79224 29.2418L3.71542 35.2463C3.69347 37.5591 7.66597 37.5917 7.66597 35.2789M30.1293 26.3753L30.1183 35.2898C30.1183 37.5917 34.3432 37.5591 34.3212 35.2572L34.2444 29.2527L34.1457 17.9712M34.2554 22.9767C34.826 24.6054 35.682 24.8117 36.2965 24.4317C37.2951 23.8128 36.9549 22.5315 36.9001 21.5217L36.5928 15.3869C36.516 13.9645 32.73 13.3891 29.3172 13.5736M26.2555 29.2418L26.1787 35.2463C26.1568 37.5591 30.1293 37.5917 30.1293 35.2789M18.9141 1C20.7577 1 22.2501 2.61785 22.2501 4.60488C22.2501 5.95128 21.5697 7.12395 20.5601 7.74286C20.0663 8.05774 19.4847 8.24233 18.8702 8.24233C17.0266 8.24233 15.5451 6.62448 15.5451 4.63745C15.5451 3.29105 16.2255 2.11838 17.2351 1.49947C17.7289 1.18459 18.2996 1 18.9141 1ZM7.6989 4.72432C9.34496 4.72432 10.6838 6.16844 10.6838 7.94916C10.6838 9.15441 10.0692 10.2076 9.16938 10.7614C8.73043 11.0437 8.20369 11.2066 7.655 11.2066C6.00894 11.2066 4.67014 9.76246 4.67014 7.98174C4.67014 6.77649 5.28467 5.72326 6.18452 5.1695C6.62347 4.88719 7.15021 4.72432 7.6989 4.72432ZM30.1512 4.72432C31.7973 4.72432 33.1361 6.16844 33.1361 7.94916C33.1361 9.15441 32.5215 10.2076 31.6217 10.7614C31.1827 11.0437 30.656 11.2066 30.1073 11.2066C28.4613 11.2066 27.1225 9.76246 27.1225 7.98174C27.1225 6.77649 27.737 5.72326 28.6368 5.1695C29.0868 4.88719 29.6025 4.72432 30.1512 4.72432Z" stroke="#222222" stroke-width="2" stroke-miterlimit="22.9256" stroke-linecap="round" stroke-linejoin="round"/>
</svg>
