<svg width="42" height="36" viewBox="0 0 42 36" fill="none" xmlns="http://www.w3.org/2000/svg">
<path d="M29.2682 32.1732C29.2682 33.1788 28.3743 34.0726 27.3687 34.0726C26.5866 34.0726 26.0279 33.6257 25.6927 32.9553L22.0056 27.0335C21.3352 25.8045 20.4413 24.1285 18.3184 25.4693C17.5363 26.0279 16.5307 26.1397 15.5251 26.1397C12.5084 26.1397 10.0503 23.905 9.60335 21C9.04469 21.2235 8.48603 21.3352 7.81564 21.3352C5.46927 21.3352 3.56983 19.5475 3.34637 17.2011C2.00559 16.419 1 14.9665 1 13.1788C1 10.6089 3.01117 8.59776 5.46927 8.59776C5.58101 8.59776 5.58101 8.59776 5.69274 8.59776C5.58101 8.26257 5.46927 7.81564 5.46927 7.25698C5.46927 5.35754 7.03352 3.68156 8.93296 3.68156C9.37989 3.68156 9.82682 3.7933 10.162 3.90503C11.1676 2.11732 13.067 1 15.1899 1C16.419 1 17.5363 1.44693 18.5419 2.11732C19.2123 1.44693 19.9944 1 21 1C22.0056 1 23.0112 1.44693 23.5698 2.22905C24.2402 1.89385 25.0223 1.78212 25.8045 1.78212C27.257 1.78212 28.5978 2.34078 29.6034 3.34637C29.9385 3.23464 30.2737 3.23464 30.6089 3.23464C32.5084 3.23464 33.9609 4.68715 34.0726 6.58659C34.2961 6.58659 34.4078 6.58659 34.6313 6.58659C36.5307 6.58659 37.9832 8.15084 37.9832 10.0503C37.9832 10.2737 37.9832 10.3855 37.9832 10.6089C39.771 11.2793 41 12.9553 41 14.9665C41 15.9721 40.6648 16.8659 40.2179 17.5363C40.4413 18.095 40.5531 18.7654 40.5531 19.4358C40.5531 22.676 37.9832 25.2458 34.8547 25.2458C34.743 25.2458 34.743 25.2458 34.6313 25.2458C34.6313 25.3575 34.6313 25.4693 34.6313 25.581C34.8547 27.3687 33.6257 28.933 32.2849 28.933C31.0559 28.933 30.7207 28.0391 29.7151 28.5978C29.0447 28.933 28.7095 29.6033 28.7095 30.2737C28.7095 31.0559 29.2682 31.2793 29.2682 32.1732Z" stroke="#222222" stroke-width="2" stroke-miterlimit="22.9256" stroke-linecap="round" stroke-linejoin="round"/>
</svg>
