<svg width="42" height="32" viewBox="0 0 42 32" fill="none" xmlns="http://www.w3.org/2000/svg">
<path d="M37.6769 7.87368V21.9484C37.6769 22.8212 36.9131 23.5849 36.0403 23.5849H6.58166C5.70881 23.5849 4.94507 22.8212 4.94507 21.9484V2.63659C4.94507 1.76374 5.70881 1 6.58166 1H26.3298" stroke="#222222" stroke-width="2" stroke-miterlimit="22.9256" stroke-linecap="round" stroke-linejoin="round"/>
<path d="M16.2921 1H36.0403C36.9131 1 37.6769 1.76374 37.6769 2.63659V21.9484C37.6769 22.8212 36.9131 23.5849 36.0403 23.5849H6.58166C5.70881 23.5849 4.94507 22.8212 4.94507 21.9484V7.87368" stroke="#222222" stroke-width="2" stroke-miterlimit="22.9256" stroke-linecap="round" stroke-linejoin="round"/>
<path d="M40.9499 30.0222H1.67172C1.34441 30.0222 0.907982 29.6949 1.01709 29.4766L5.16312 23.694" stroke="#222222" stroke-width="2" stroke-miterlimit="22.9256" stroke-linecap="round" stroke-linejoin="round"/>
<path d="M36.8039 23.694L40.9499 29.4766C41.1681 29.6949 40.6226 30.0222 40.2953 30.0222H1.01709" stroke="#222222" stroke-width="2" stroke-miterlimit="22.9256" stroke-linecap="round" stroke-linejoin="round"/>
<path d="M19.4559 7.32812L14.5461 12.2379L19.4559 17.1477" stroke="#222222" stroke-width="2" stroke-miterlimit="22.9256" stroke-linecap="round" stroke-linejoin="round"/>
<path d="M23.2747 17.1477L28.1844 12.2379L23.2747 7.32812" stroke="#222222" stroke-width="2" stroke-miterlimit="22.9256" stroke-linecap="round" stroke-linejoin="round"/>
</svg>
