<svg width="41" height="41" viewBox="0 0 41 41" fill="none" xmlns="http://www.w3.org/2000/svg">
<path d="M3.04858 29.8563C3.45119 30.6852 3.90116 31.218 4.35113 31.5259C4.659 31.7272 4.97872 31.8219 5.28659 31.8219C5.62999 31.8219 5.98523 31.7391 6.34047 31.5733C7.02727 31.2536 7.67854 30.6615 8.19956 29.9747C8.29429 29.7024 8.49559 29.4774 8.77979 29.3471C8.94556 29.2761 9.11134 29.2405 9.27712 29.2405C9.50211 29.2287 9.73893 29.2879 9.94024 29.43C10.2007 29.6076 10.3665 29.8681 10.4257 30.1523C10.7928 30.8273 11.1836 31.2654 11.5862 31.5259C11.8941 31.7272 12.2138 31.8219 12.5216 31.8219C12.865 31.8219 13.2203 31.7391 13.5755 31.5733C14.2623 31.2536 14.9136 30.6615 15.4346 29.9747C15.5293 29.7024 15.7306 29.4774 16.0148 29.3471C16.1806 29.2761 16.3464 29.2405 16.5122 29.2405C16.7372 29.2287 16.974 29.2879 17.1753 29.43C17.4358 29.6076 17.6016 29.8681 17.6608 30.1523C18.0279 30.8273 18.4186 31.2654 18.8212 31.5259C19.1291 31.7272 19.4488 31.8219 19.7567 31.8219C20.1001 31.8219 20.4553 31.7391 20.8106 31.5733C21.4974 31.2536 22.1486 30.6615 22.6697 29.9747C22.7644 29.7024 22.9657 29.4774 23.2499 29.3471C23.4157 29.2761 23.5814 29.2405 23.7472 29.2405C23.9722 29.2287 24.209 29.2879 24.4103 29.43C24.6708 29.6076 24.8366 29.8681 24.8958 30.1523C25.2629 30.8273 25.6537 31.2654 26.0563 31.5259C26.3642 31.7272 26.672 31.8219 26.9917 31.8219C27.3351 31.8219 27.6904 31.7391 28.0456 31.5733C28.7324 31.2536 29.3837 30.6615 29.9047 29.9747C29.9994 29.7024 30.2007 29.4774 30.4849 29.3471C30.6507 29.2761 30.8165 29.2405 30.9823 29.2405C31.2073 29.2287 31.4441 29.2879 31.6454 29.43C31.9059 29.6076 32.0717 29.8681 32.1309 30.1523C32.498 30.8273 32.8887 31.2654 33.2913 31.5259C33.5992 31.7272 33.9189 31.8219 34.2268 31.8219C34.5702 31.8219 34.9254 31.7391 35.2807 31.5733C36.0504 31.2062 36.7727 30.5194 37.3292 29.726" stroke="#222222" stroke-width="2" stroke-miterlimit="22.9256" stroke-linecap="round" stroke-linejoin="round"/>
<path d="M39.3422 39.4359H1" stroke="#222222" stroke-width="2" stroke-miterlimit="22.9256" stroke-linecap="round" stroke-linejoin="round"/>
<path d="M3.04858 38.8675V24.575C3.04858 23.1185 4.28008 21.9107 5.76025 21.9107C15.5175 21.9107 34.0965 21.9107 34.582 21.9107C36.0622 21.9107 37.2937 23.1185 37.2937 24.575V38.8675" stroke="#222222" stroke-width="2" stroke-miterlimit="22.9256" stroke-linecap="round" stroke-linejoin="round"/>
<path d="M18.3238 10.9812C17.0213 9.9273 15.7543 9.05104 15.8727 7.4051C16.0029 5.60522 17.4476 4.21978 18.6672 3.03565C18.9396 2.77514 19.2356 2.562 19.4251 2.28965C20.5618 0.679225 20.2303 0.489764 20.6447 2.2186C20.7395 2.63304 20.9881 2.95276 21.2368 3.24879C22.042 4.21978 23.2498 4.76448 24.0432 5.87757C25.0023 7.21564 24.8602 8.94447 22.9538 10.9101" stroke="#222222" stroke-width="2" stroke-miterlimit="22.9256" stroke-linecap="round" stroke-linejoin="round"/>
<path d="M16.8911 21.591V14.5572C16.8911 13.977 17.3174 13.5034 17.8384 13.5034H22.6697C23.1907 13.5034 23.617 13.977 23.617 14.5572V21.591" stroke="#222222" stroke-width="2" stroke-miterlimit="22.9256" stroke-linecap="round" stroke-linejoin="round"/>
</svg>
